<!DOCTYPE svg PUBLIC "-//W3C//DTD SVG 1.1//EN" "http://www.w3.org/Graphics/SVG/1.1/DTD/svg11.dtd">
<!-- Uploaded to: SVG Repo, www.svgrepo.com, Transformed by: SVG Repo Mixer Tools -->
<svg fill="#ffffff" height="256px" width="256px" version="1.1" id="Layer_1" xmlns="http://www.w3.org/2000/svg" xmlns:xlink="http://www.w3.org/1999/xlink" viewBox="-122.88 -122.88 757.76 757.76" xml:space="preserve" stroke="#ffffff">
<g id="SVGRepo_bgCarrier" stroke-width="0" transform="translate(0,0), scale(1)">
<path transform="translate(-122.88, -122.88), scale(47.36)" fill="#000000" d="M9.166.33a2.25 2.25 0 00-2.332 0l-5.25 3.182A2.25 2.25 0 00.5 5.436v5.128a2.25 2.25 0 001.084 1.924l5.25 3.182a2.25 2.25 0 002.332 0l5.25-3.182a2.25 2.25 0 001.084-1.924V5.436a2.25 2.25 0 00-1.084-1.924L9.166.33z" strokewidth="0"/>
</g>
<g id="SVGRepo_tracerCarrier" stroke-linecap="round" stroke-linejoin="round"/>
<g id="SVGRepo_iconCarrier"> <g> <g> <path d="M242.154,100.833v147.331h-48.848v-47.02H0v109.714h193.306v-47.02h64.521V116.506h37.356v-15.673H242.154z M177.633,295.184H15.673v-78.367h161.959V295.184z"/> </g> </g> <g> <g> <path d="M423.184,216.816v-53.29H512V53.812H318.694v109.714h88.816v37.616h-88.816v109.714h88.816v37.616h-88.816v47.02h-60.866 V287.347h-15.673v123.82h76.54v47.02H512V348.473h-88.816v-37.616H512V201.143h-65.306v15.673h49.633v78.367H334.367v-78.367 H423.184z M334.367,147.853V69.486h161.959v78.367H334.367z M496.327,364.147v78.367H334.367v-78.367H496.327z"/> </g> </g> </g>
</svg>